<svg xmlns="http://www.w3.org/2000/svg" width="100.214" height="17.358" viewBox="0 0 100.214 17.358">
  <g id="logo" transform="translate(0.089 0.091)">
    <g id="Group_39" data-name="Group 39" transform="translate(0 0)">
      <path id="Path_284" data-name="Path 284" d="M25.038,281.859l-.294-.47c-.117-.188-.235-.375-.35-.563a.187.187,0,0,0-.124-.094,4.225,4.225,0,0,1-1.3-.557,5,5,0,0,1-1.327-1.286,6.453,6.453,0,0,1-.915-1.792.248.248,0,0,1,0-.165c.019-.058.033-.117.052-.184l-.245.045a5.16,5.16,0,0,1-1.3.07,4.238,4.238,0,0,1-1.376-.32,3.685,3.685,0,0,1-1.746-1.451,3.8,3.8,0,0,1-.491-1.321,5.484,5.484,0,0,1-.079-1.29,7.654,7.654,0,0,1,.37-2.016.436.436,0,0,1,.731-.186l2.689,2.446q1.1,1,2.2,2c.046.042.066.035.09-.017a.627.627,0,0,1,.072-.124c.031-.04.015-.06-.018-.085a5.429,5.429,0,0,1-.92-.88.163.163,0,0,1-.039-.111c0-.314,0-.627,0-.941a.127.127,0,0,0-.023-.082,2.4,2.4,0,0,1-.451-1.3,2.063,2.063,0,0,1,.307-1.239.151.151,0,0,0,.028-.1c0-.039,0-.078,0-.116a1.126,1.126,0,0,1,.173-.695,3.648,3.648,0,0,1,1.133-1.272c.049-.035.065-.055.032-.116a.405.405,0,0,1,.144-.549c.034-.022.028-.037.012-.063q-.3-.519-.6-1.04a.078.078,0,0,0-.076-.043.59.59,0,0,1-.6-.488.6.6,0,0,1,.463-.7.594.594,0,0,1,.716.471.557.557,0,0,1-.108.477.067.067,0,0,0-.006.089q.3.512.6,1.027c.022.039.038.044.078.024a.412.412,0,0,1,.6.2c.029.059.054.073.121.051a6.534,6.534,0,0,1,1.266-.265,5.77,5.77,0,0,1,2.353.269c.066.02.078-.009.1-.051a.411.411,0,0,1,.432-.258.385.385,0,0,1,.174.057c.035.021.054.016.074-.019q.3-.521.6-1.04c.025-.042,0-.061-.018-.089a.6.6,0,0,1,.333-.934.6.6,0,1,1,.17,1.18.119.119,0,0,0-.116.07c-.191.334-.385.667-.579,1-.02.035-.032.055.014.086a.4.4,0,0,1,.133.541c-.029.056-.022.08.03.116a3.57,3.57,0,0,1,1.291,1.611.242.242,0,0,1,.02.106c0,.02,0,.041,0,.062a1.078,1.078,0,0,0,.128.6,1.986,1.986,0,0,1,.192,1.171,2.375,2.375,0,0,1-.439,1.16.142.142,0,0,0-.024.09c0,.3,0,.6,0,.906a.246.246,0,0,1-.064.172,5.614,5.614,0,0,1-.894.848c-.042.032-.044.051-.016.092.044.066.082.136.123.2l.012,0c0-.032.023-.049.043-.068l3.328-3.027q.784-.712,1.569-1.425a.433.433,0,0,1,.738.2,8.472,8.472,0,0,1,.293,1.261,6.706,6.706,0,0,1,.059,1.485,3.751,3.751,0,0,1-.758,2.157,3.794,3.794,0,0,1-1.721,1.228,4.566,4.566,0,0,1-1.76.262,5.023,5.023,0,0,1-.982-.129l-.023,0,0,.009a.7.7,0,0,1-.033.593,6.458,6.458,0,0,1-1.3,2.113,4.311,4.311,0,0,1-2.155,1.278.186.186,0,0,0-.121.087c-.228.344-.459.687-.7,1.04" transform="translate(-15.54 -264.757)" fill="#100f0c"/>
      <path id="Path_285" data-name="Path 285" d="M25.038,281.859l-.294-.47c-.117-.188-.235-.375-.35-.563a.187.187,0,0,0-.124-.094,4.225,4.225,0,0,1-1.3-.557,5,5,0,0,1-1.327-1.286,6.453,6.453,0,0,1-.915-1.792.248.248,0,0,1,0-.165c.019-.058.033-.117.052-.184l-.245.045a5.16,5.16,0,0,1-1.3.07,4.238,4.238,0,0,1-1.376-.32,3.685,3.685,0,0,1-1.746-1.451,3.8,3.8,0,0,1-.491-1.321,5.484,5.484,0,0,1-.079-1.29,7.654,7.654,0,0,1,.37-2.016.436.436,0,0,1,.731-.186l2.689,2.446q1.1,1,2.2,2c.046.042.066.035.09-.017a.627.627,0,0,1,.072-.124c.031-.04.015-.06-.018-.085a5.429,5.429,0,0,1-.92-.88.163.163,0,0,1-.039-.111c0-.314,0-.627,0-.941a.127.127,0,0,0-.023-.082,2.4,2.4,0,0,1-.451-1.3,2.063,2.063,0,0,1,.307-1.239.151.151,0,0,0,.028-.1c0-.039,0-.078,0-.116a1.126,1.126,0,0,1,.173-.695,3.648,3.648,0,0,1,1.133-1.272c.049-.035.065-.055.032-.116a.405.405,0,0,1,.144-.549c.034-.022.028-.037.012-.063q-.3-.519-.6-1.04a.078.078,0,0,0-.076-.043.59.59,0,0,1-.6-.488.6.6,0,0,1,.463-.7.594.594,0,0,1,.716.471.557.557,0,0,1-.108.477.067.067,0,0,0-.006.089q.3.512.6,1.027c.022.039.038.044.078.024a.412.412,0,0,1,.6.2c.029.059.054.073.121.051a6.534,6.534,0,0,1,1.266-.265,5.77,5.77,0,0,1,2.353.269c.066.02.078-.009.1-.051a.411.411,0,0,1,.432-.258.385.385,0,0,1,.174.057c.035.021.054.016.074-.019q.3-.521.6-1.04c.025-.042,0-.061-.018-.089a.6.6,0,0,1,.333-.934.6.6,0,1,1,.17,1.18.119.119,0,0,0-.116.07c-.191.334-.385.667-.579,1-.02.035-.032.055.014.086a.4.4,0,0,1,.133.541c-.029.056-.022.08.03.116a3.57,3.57,0,0,1,1.291,1.611.242.242,0,0,1,.02.106c0,.02,0,.041,0,.062a1.078,1.078,0,0,0,.128.6,1.986,1.986,0,0,1,.192,1.171,2.375,2.375,0,0,1-.439,1.16.142.142,0,0,0-.024.09c0,.3,0,.6,0,.906a.246.246,0,0,1-.064.172,5.614,5.614,0,0,1-.894.848c-.042.032-.044.051-.016.092.044.066.082.136.123.2l.012,0c0-.032.023-.049.043-.068l3.328-3.027q.784-.712,1.569-1.425a.433.433,0,0,1,.738.2,8.472,8.472,0,0,1,.293,1.261,6.706,6.706,0,0,1,.059,1.485,3.751,3.751,0,0,1-.758,2.157,3.794,3.794,0,0,1-1.721,1.228,4.566,4.566,0,0,1-1.76.262,5.023,5.023,0,0,1-.982-.129l-.023,0,0,.009a.7.7,0,0,1-.033.593,6.458,6.458,0,0,1-1.3,2.113,4.311,4.311,0,0,1-2.155,1.278.186.186,0,0,0-.121.087C25.506,281.163,25.275,281.505,25.038,281.859Z" transform="translate(-15.54 -264.757)" fill="none" stroke="#fff" stroke-miterlimit="10" stroke-width="0.179"/>
      <path id="Path_286" data-name="Path 286" d="M31.9,287.786a.715.715,0,0,1,.071.064c.037.043.064.036.105,0,.182-.157.367-.309.551-.464l.3-.254a.621.621,0,0,0-.584-.229h-.58c-.094,0-.188-.007-.281,0a.74.74,0,0,0-.349.206c-.025.018-.006.03.008.042l.757.633" transform="translate(-22.498 -274.645)" fill="#100f0c"/>
      <path id="Path_287" data-name="Path 287" d="M28.252,290.62c0-.008,0-.01-.008-.007l.009.006c0,.02.019.03.032.043a4.113,4.113,0,0,0,.544.47,3.381,3.381,0,0,0,1.482.619c.044.006.089.016.133.017a1.87,1.87,0,0,0,.356.008.463.463,0,0,0,.068,0,3.316,3.316,0,0,0,1.333-.375,4.075,4.075,0,0,0,1-.755h0l0,0c-.017-.015-.036-.007-.052,0-.248.051-.5.085-.748.124h-.014a12.626,12.626,0,0,1-1.817.1,13.152,13.152,0,0,1-1.467-.11c-.17-.028-.34-.057-.511-.082a2.66,2.66,0,0,0-.341-.058" transform="translate(-21.214 -276.305)" fill="#100f0c"/>
      <path id="Path_288" data-name="Path 288" d="M17.666,277.984h0c0-.016,0-.032-.007-.048q-.206-.905-.412-1.81a.1.1,0,0,0-.032-.059c-.11-.1-.217-.2-.326-.293l0-.006h-.006c-.015,0-.013.016-.016.027a7.533,7.533,0,0,0-.274,1.729.072.072,0,0,0,.025.066l1.182,1,.01,0v0c-.006-.005-.009,0-.011,0,.012-.009.007-.02,0-.031l-.128-.553c0-.011,0-.022-.01-.028" transform="translate(-16.01 -269.675)" fill="#100f0c"/>
      <path id="Path_289" data-name="Path 289" d="M38.362,280.065a1.548,1.548,0,0,0,.015-.323,1.43,1.43,0,0,1-1.429.029,1.832,1.832,0,0,0,.029.323c.008.051.015.1.027.154a1.489,1.489,0,0,0,.316.651c.018.021.031.042.066.018a4.942,4.942,0,0,0,.977-.852" transform="translate(-25.102 -271.45)" fill="#100f0c"/>
      <path id="Path_290" data-name="Path 290" d="M27.362,280.111a2.229,2.229,0,0,0,.027-.264c0-.05,0-.071-.059-.04a1.346,1.346,0,0,1-.917.118,1.487,1.487,0,0,1-.408-.152c-.037-.02-.048-.014-.046.027s0,.1,0,.143-.019.091.017.131a.313.313,0,0,0,.02.027,5.2,5.2,0,0,0,.935.811c.046.032.067.022.1-.016a1.567,1.567,0,0,0,.331-.785" transform="translate(-20.193 -271.459)" fill="#100f0c"/>
      <path id="Path_291" data-name="Path 291" d="M44.46,283.771a2.6,2.6,0,0,0,.544-.22,3.029,3.029,0,0,0,1.358-1.337,2,2,0,0,0,.132-.32l-.054.041-1.228.966c-.227.179-.454.36-.681.541l-.572.442a2.578,2.578,0,0,0,.346-.065c.053-.013.1-.032.156-.048" transform="translate(-28.233 -272.411)" fill="#100f0c"/>
      <path id="Path_292" data-name="Path 292" d="M17.034,281.924c0-.006-.007-.012-.014-.007s0,.011,0,.017a2.528,2.528,0,0,0,.391.726,3.29,3.29,0,0,0,1.766,1.161,1.292,1.292,0,0,0,.352.069v.009l.008,0-.011,0c0-.022-.022-.027-.035-.038L17.7,282.442l-.665-.518" transform="translate(-16.201 -272.421)" fill="#100f0c"/>
      <path id="Path_293" data-name="Path 293" d="M33.448,287.041c-.092.024-.185.046-.277.071-.229.061-.463.1-.694.152-.387.058-.774.11-1.164.131a.062.062,0,0,0-.054.036.548.548,0,0,1-.125.135l-1.019.855a.546.546,0,0,1-.722,0c-.349-.292-.7-.585-1.046-.878a.369.369,0,0,1-.091-.1.094.094,0,0,0-.089-.049c-.171-.013-.342-.027-.512-.046s-.367-.046-.551-.07a.31.31,0,0,0-.039-.011c-.266-.044-.528-.1-.789-.168a.936.936,0,0,0-.23-.054l0-.007v0l0,0a.063.063,0,0,0,0,.02,6.309,6.309,0,0,0,.708,1.34.092.092,0,0,0,.054.039,8.943,8.943,0,0,0,.9.2c.023.005.045.012.067.016a12.168,12.168,0,0,0,2.548.159,11.114,11.114,0,0,0,1.519-.163c.275-.043.546-.107.816-.175a.1.1,0,0,0,.061-.039,6.155,6.155,0,0,0,.739-1.394l0-.017-.009.008" transform="translate(-20.231 -274.707)" fill="#100f0c"/>
      <path id="Path_294" data-name="Path 294" d="M32.833,283.336c-.033-.083-.086-.156-.125-.235-.028-.056-.055-.063-.114-.032a3.273,3.273,0,0,1-1.332.422c-.028,0-.063,0-.082.026-.081.11-.173.212-.244.329l-.058.066c-.032.038-.05.091-.1.113a2.193,2.193,0,0,1-.49.179l-.008-.008a2.878,2.878,0,0,0,.234-.444c-.168.035-.325.062-.478.1a.8.8,0,0,1-.4,0,3.948,3.948,0,0,0-.468-.095c0-.008-.007-.008-.012,0l.008.006a1.077,1.077,0,0,0,.136.281c.031.056.065.111.107.18a4.017,4.017,0,0,1-.4-.133.428.428,0,0,1-.248-.189.228.228,0,0,0-.043-.043,3.72,3.72,0,0,0-.227-.315.141.141,0,0,0-.119-.055,2.836,2.836,0,0,1-.791-.178,3.408,3.408,0,0,1-.553-.255c-.025-.015-.046-.027-.066.011a2.831,2.831,0,0,0-.142.265.1.1,0,0,0-.018.02,9.134,9.134,0,0,0-.593,1.405c-.013.042,0,.055.038.067a7.354,7.354,0,0,0,.933.214c.326.063.655.095.985.126a.245.245,0,0,0,.224-.081,3.086,3.086,0,0,1,.4-.317.907.907,0,0,1,.533-.172c.339,0,.677,0,1.016,0a1.021,1.021,0,0,1,.224.029,1.225,1.225,0,0,1,.5.287,1.177,1.177,0,0,1,.27.24c.017.025.039.018.061.017.174-.007.346-.024.519-.045a6.217,6.217,0,0,0,.63-.1,7.125,7.125,0,0,0,.885-.2c.041-.012.033-.031.023-.061-.076-.236-.162-.469-.259-.7a6.06,6.06,0,0,0-.347-.726" transform="translate(-20.3 -272.924)" fill="#100f0c"/>
      <path id="Path_295" data-name="Path 295" d="M43.685,282.034l.039-.027q.935-.736,1.872-1.471a.188.188,0,0,0,.079-.113,5.26,5.26,0,0,0,.094-.637c.008-.094.009-.188.014-.293-.021.017-.032.024-.042.033l-1.023.873-.816.7a.366.366,0,0,0-.034.023l-1.794,1.533-.222.191c.011.008.013.013.017.013a4.663,4.663,0,0,0,.72.011.111.111,0,0,0,.064-.02l1.034-.817" transform="translate(-27.292 -271.338)" fill="#100f0c"/>
      <path id="Path_296" data-name="Path 296" d="M42.715,278.6c-.009.01-.018.02-.028.029l-2.343,2.112-.8.721c-.017.015-.048.024-.033.059.056.128.112.256.169.388l.033-.024q1.4-1.145,2.805-2.291a.106.106,0,0,0,.04-.068c.044-.242.091-.485.133-.728a.462.462,0,0,0,.024-.2l.01.008v0l-.011,0" transform="translate(-26.245 -270.938)" fill="#100f0c"/>
      <path id="Path_297" data-name="Path 297" d="M18.664,278.687c.037.165.077.329.107.495a.261.261,0,0,0,.1.162q.787.669,1.57,1.34l1.038.886c.023.019.042.047.082.041a2.487,2.487,0,0,0,.486-.107c.09-.009.163-.04.178-.143a.1.1,0,0,1,.013-.032c.028-.045.023-.074-.023-.111q-1.422-1.155-2.84-2.315a.141.141,0,0,1-.059-.087c-.073-.4-.148-.8-.221-1.2a.169.169,0,0,0-.058-.1q-.386-.349-.771-.7c-.01-.009-.022-.016-.041-.029.082.362.162.714.243,1.065.064.281.13.56.2.84" transform="translate(-16.74 -270.128)" fill="#100f0c"/>
      <path id="Path_298" data-name="Path 298" d="M43.161,279.553c.1-.081.191-.162.288-.242a.1.1,0,0,0,.03-.059q.271-1.192.544-2.384c0-.016.014-.035-.015-.052l-.242.226-.564.509a.1.1,0,0,0-.028.06c-.072.4-.147.79-.219,1.185a.2.2,0,0,1-.074.131q-1.418,1.153-2.832,2.311c-.029.024-.087.038-.072.087.02.066.031.138.121.164a4.211,4.211,0,0,0,.573.133.128.128,0,0,0,.111-.031q.676-.581,1.356-1.159l1.025-.88" transform="translate(-26.453 -270.144)" fill="#100f0c"/>
      <path id="Path_299" data-name="Path 299" d="M26.206,271a2.382,2.382,0,0,0-.313.475l.013.006.027-.007a1.339,1.339,0,0,1,.689-.053,1.713,1.713,0,0,1,1.028.634,2.342,2.342,0,0,1,.531,1.328,2.053,2.053,0,0,1-.376,1.432.072.072,0,0,0-.02.055,3.279,3.279,0,0,1,.021.472,3.615,3.615,0,0,1-.073.487,1.957,1.957,0,0,1-.378.773,2.769,2.769,0,0,0,.563.208c-.007-.048-.012-.088-.018-.128s-.015-.086-.022-.128a.232.232,0,0,1,.146-.277.723.723,0,0,1,.375-.06c.338.023.672.073,1.008.11a1.517,1.517,0,0,0,.307.027c.371-.036.74-.085,1.11-.126a1.013,1.013,0,0,1,.507.04.242.242,0,0,1,.164.3,1.331,1.331,0,0,0-.033.243,2.868,2.868,0,0,0,.522-.188c.037-.017.026-.032.008-.055a1.741,1.741,0,0,1-.178-.276,2.345,2.345,0,0,1-.245-.948,3.53,3.53,0,0,1,.017-.465.1.1,0,0,0-.027-.074,1.69,1.69,0,0,1-.2-.355,2.367,2.367,0,0,1,.7-2.715,1.482,1.482,0,0,1,1.136-.319,1.875,1.875,0,0,1,.295.075,2.513,2.513,0,0,0-.323-.488,2.957,2.957,0,0,0-.619-.588c-.036-.027-.042,0-.056.021a.413.413,0,0,1-.52.106c-.144-.072-.288-.148-.433-.221a.419.419,0,0,1-.253-.475c0-.03,0-.044-.029-.054a6.312,6.312,0,0,0-1.3-.246c-.043,0-.054.009-.053.051q0,.535,0,1.071c0,.042.015.058.053.071a.834.834,0,0,1,.556.942.841.841,0,1,1-1.654-.308.823.823,0,0,1,.555-.635c.027-.01.053-.015.053-.058,0-.364,0-.728,0-1.091,0-.039-.014-.047-.049-.043-.052.007-.1.009-.157.015a6.194,6.194,0,0,0-1.134.23c-.032.009-.05.017-.043.059a.411.411,0,0,1-.231.459c-.142.073-.285.146-.427.22a.416.416,0,0,1-.553-.1c-.019-.023-.029-.026-.053-.008a3.049,3.049,0,0,0-.615.584" transform="translate(-20.164 -266.897)" fill="#100f0c"/>
      <path id="Path_300" data-name="Path 300" d="M25.1,275.174a1.744,1.744,0,0,0,.057.46,1.589,1.589,0,0,0,.708,1.011.8.8,0,0,0,1.066-.154,1.347,1.347,0,0,0,.312-.865,1.718,1.718,0,0,0-.054-.509,1.6,1.6,0,0,0-.737-1.037.813.813,0,0,0-1.068.21,1.43,1.43,0,0,0-.284.883" transform="translate(-19.812 -268.87)" fill="#100f0c"/>
      <path id="Path_301" data-name="Path 301" d="M37.742,273.971h-.089c-.011,0-.022,0-.033.006a1.168,1.168,0,0,0-.738.485,1.741,1.741,0,0,0-.348.874,1.569,1.569,0,0,0,.19,1.017.82.82,0,0,0,1.013.374,1.235,1.235,0,0,0,.555-.433,1.81,1.81,0,0,0,.362-1.226,1.392,1.392,0,0,0-.2-.674.821.821,0,0,0-.708-.422" transform="translate(-24.911 -268.872)" fill="#100f0c"/>
      <path id="Path_302" data-name="Path 302" d="M20.535,282.854l-3.945-3.369a4.706,4.706,0,0,0,.118.967.122.122,0,0,0,.053.068c.93.731,1.861,1.459,2.787,2.2a.631.631,0,0,0,.451.164c.172-.009.345-.007.537-.025" transform="translate(-16.009 -271.335)" fill="#100f0c"/>
      <path id="Path_303" data-name="Path 303" d="M20.214,278.577c.059.321.115.629.171.937a.123.123,0,0,0,.052.076l2.545,2.079.249.2c.055-.122.1-.238.158-.351a.071.071,0,0,0-.02-.1q-1.135-1.019-2.268-2.042l-.888-.8" transform="translate(-17.628 -270.93)" fill="#100f0c"/>
      <path id="Path_304" data-name="Path 304" d="M47.685,275.753c-.115.1-.221.2-.328.3a.145.145,0,0,0-.045.08q-.208.921-.421,1.842l-.14.621a.109.109,0,0,0,.018-.009l1.174-1a.076.076,0,0,0,.027-.071,7.383,7.383,0,0,0-.148-1.2c-.038-.185-.081-.369-.137-.558" transform="translate(-29.481 -269.668)" fill="#100f0c"/>
      <path id="Path_305" data-name="Path 305" d="M32.028,272.818a.4.4,0,0,0,.4.4.4.4,0,0,0,0-.8.4.4,0,0,0-.4.4" transform="translate(-22.905 -268.178)" fill="#100f0c"/>
      <path id="Path_306" data-name="Path 306" d="M31.821,275.346a2.345,2.345,0,0,0,.245.948,1.742,1.742,0,0,0,.178.276c.018.023.029.038-.008.055a2.847,2.847,0,0,1-.522.188,1.33,1.33,0,0,1,.033-.243.242.242,0,0,0-.164-.3,1.013,1.013,0,0,0-.507-.04c-.37.041-.739.09-1.11.126a1.517,1.517,0,0,1-.307-.027c-.336-.038-.671-.087-1.008-.111a.729.729,0,0,0-.375.061.232.232,0,0,0-.146.277c.006.043.015.086.022.129s.012.08.018.128a2.752,2.752,0,0,1-.562-.208,1.971,1.971,0,0,0,.378-.773,3.615,3.615,0,0,0,.073-.487,1.276,1.276,0,0,0,.431-.393,2.037,2.037,0,0,0,.351-1.119,3.828,3.828,0,0,0-.05-.906,2.169,2.169,0,0,0-1.435-1.758,3.035,3.035,0,0,0-.9-.167,3.049,3.049,0,0,1,.615-.584c.024-.018.034-.014.053.008a.416.416,0,0,0,.553.1l.427-.219a.411.411,0,0,0,.231-.459c-.008-.043.011-.05.043-.059a6.194,6.194,0,0,1,1.134-.23c.052-.006.1-.008.157-.015.035,0,.049,0,.049.043,0,.364,0,.728,0,1.091,0,.043-.025.048-.053.058a.823.823,0,0,0-.555.635.841.841,0,1,0,1.654.308.834.834,0,0,0-.556-.942c-.039-.014-.053-.029-.053-.071q0-.535,0-1.071c0-.043.01-.055.053-.051a6.274,6.274,0,0,1,1.3.246c.033.01.033.024.029.054a.419.419,0,0,0,.253.475c.144.073.288.148.433.221a.413.413,0,0,0,.52-.106c.014-.017.02-.048.056-.021a2.957,2.957,0,0,1,.619.588,2.893,2.893,0,0,0-.923.177,2.1,2.1,0,0,0-1.18,1.048,3.068,3.068,0,0,0-.286,1.293,3.258,3.258,0,0,0,.024.464,2.06,2.06,0,0,0,.276.874,1.366,1.366,0,0,0,.492.485" transform="translate(-20.417 -266.897)" fill="#ffc504"/>
      <path id="Path_307" data-name="Path 307" d="M31.081,284.656a2.192,2.192,0,0,0,.49-.179c.046-.022.064-.075.1-.113l.058-.066a3.452,3.452,0,0,0,.464-.077c.228-.044.452-.107.676-.168.116.295.23.591.323.894a2.9,2.9,0,0,1,.132.53,6.192,6.192,0,0,1-.63.1c-.173.021-.345.038-.519.045-.023,0-.045.008-.061-.017a1.176,1.176,0,0,0-.27-.24,1.22,1.22,0,0,0-.5-.287,1.019,1.019,0,0,0-.224-.029c-.339,0-.677,0-1.016,0a.907.907,0,0,0-.533.172,3.083,3.083,0,0,0-.4.317.245.245,0,0,1-.224.081c-.33-.031-.66-.063-.986-.126a7.228,7.228,0,0,1,.3-.914c.061-.159.122-.319.183-.478.17.041.34.088.512.125a3.493,3.493,0,0,0,.546.089.229.229,0,0,1,.043.043.428.428,0,0,0,.248.189,3.925,3.925,0,0,0,.4.133c-.042-.069-.076-.123-.107-.18a1.086,1.086,0,0,1-.136-.281l0,0a4.057,4.057,0,0,1,.468.1.8.8,0,0,0,.4,0c.153-.039.31-.066.478-.1a2.927,2.927,0,0,1-.234.444v.016l.008-.008" transform="translate(-21.088 -273.376)" fill="#f58a15"/>
      <path id="Path_308" data-name="Path 308" d="M32.7,288.845a11.11,11.11,0,0,1-1.519.163,12.168,12.168,0,0,1-2.548-.159c-.023,0-.044-.01-.067-.015a.221.221,0,0,0-.019-.044,4.828,4.828,0,0,1-.48-.952,1.688,1.688,0,0,1-.106-.374c.184.024.367.05.551.07s.341.033.512.046a.094.094,0,0,1,.089.049.37.37,0,0,0,.091.1c.349.292.7.586,1.046.878a.546.546,0,0,0,.722,0l1.019-.855a.548.548,0,0,0,.125-.135.063.063,0,0,1,.054-.036c.391-.02.777-.073,1.164-.131,0,.018,0,.036-.008.054a4.109,4.109,0,0,1-.407.969c-.069.126-.145.247-.217.371" transform="translate(-21.088 -274.894)" fill="#f58a15"/>
      <path id="Path_309" data-name="Path 309" d="M25.1,275.174a1.434,1.434,0,0,1,.284-.883.813.813,0,0,1,1.068-.21,1.6,1.6,0,0,1,.737,1.037,1.718,1.718,0,0,1,.054.509,1.347,1.347,0,0,1-.312.865.8.8,0,0,1-1.066.154,1.589,1.589,0,0,1-.708-1.011,1.768,1.768,0,0,1-.058-.46m1.248-.705a.022.022,0,0,0-.015-.023,1.287,1.287,0,0,0-.29-.1c-.02-.005-.028.01-.036.025a3.41,3.41,0,0,0-.152.329c-.013.034,0,.044.029.052.073.019.146.038.217.062.041.014.063.006.081-.033a2.216,2.216,0,0,1,.152-.283c.006-.009.011-.02.014-.027m-.4.914c.031.005.054,0,.061-.036a2.492,2.492,0,0,1,.1-.333c.014-.039,0-.054-.034-.064-.07-.019-.141-.039-.21-.062-.038-.013-.056,0-.068.038a3.707,3.707,0,0,0-.091.371c-.006.032,0,.049.034.054l.2.033m-.483-.548c-.11,0-.112,0-.126.074s-.03.17-.041.257c-.015.116-.013.116.1.137l.121.023c.023,0,.043,0,.049-.029a2.556,2.556,0,0,1,.092-.386c.011-.035,0-.051-.036-.055l-.162-.02m.279-.517-.164.008a.1.1,0,0,0-.093.066c-.035.082-.065.165-.1.25-.017.045,0,.055.043.053a.9.9,0,0,1,.217.023c.043.009.056-.007.07-.042.033-.083.068-.165.106-.245.046-.1.048-.1-.057-.108a.217.217,0,0,1-.026,0m-.252,1.574c.059.033.051-.015.051-.057a1.755,1.755,0,0,1,.011-.314c.007-.035,0-.054-.044-.058a.992.992,0,0,1-.161-.027c-.042-.01-.056,0-.055.044a2.028,2.028,0,0,0,.018.266c.019.131.02.131.157.145h.023" transform="translate(-19.811 -268.87)" fill="#3f3b3a"/>
      <path id="Path_310" data-name="Path 310" d="M37.742,273.971a.822.822,0,0,1,.708.422,1.39,1.39,0,0,1,.2.674,1.81,1.81,0,0,1-.362,1.226,1.235,1.235,0,0,1-.555.433.82.82,0,0,1-1.013-.374,1.569,1.569,0,0,1-.19-1.017,1.739,1.739,0,0,1,.348-.874,1.168,1.168,0,0,1,.738-.485c.012,0,.023-.006.034-.006h.089m-.025.377a1.219,1.219,0,0,0-.283.1c-.029.013-.019.03-.008.049a2.427,2.427,0,0,1,.16.3c.013.029.028.035.058.026.078-.025.157-.048.236-.07.025-.007.042-.015.029-.046a3.116,3.116,0,0,0-.154-.336c-.007-.013-.015-.03-.038-.021m.334.962a2.762,2.762,0,0,0-.093-.391c-.009-.029-.019-.04-.053-.032-.08.02-.158.043-.236.068-.034.011-.034.025-.023.055a2.483,2.483,0,0,1,.107.339c.007.029.015.044.049.038.072-.014.144-.024.216-.036.028,0,.042-.016.032-.04m.281-.478-.21.027c-.025,0-.037.008-.027.038a2.355,2.355,0,0,1,.1.4c0,.03.019.035.046.03.063-.013.126-.025.189-.033.04-.005.048-.023.044-.059-.013-.111-.026-.222-.048-.332-.011-.056-.033-.081-.09-.07m-.281-.513c-.041,0-.082.006-.123.007s-.042.011-.026.041a2.678,2.678,0,0,1,.148.331.032.032,0,0,0,.042.024,1.321,1.321,0,0,1,.251-.027c.032,0,.041-.014.032-.043-.015-.044-.033-.086-.044-.129-.037-.146-.109-.241-.279-.2m.42,1.109c-.074.013-.143.028-.213.035-.044,0-.05.024-.047.062.006.073.011.146.012.219,0,.172,0,.172.169.131.021,0,.037-.01.042-.036a2.031,2.031,0,0,0,.038-.411" transform="translate(-24.911 -268.872)" fill="#3f3b3a"/>
      <path id="Path_311" data-name="Path 311" d="M43.161,279.735l-1.025.88q-.677.579-1.356,1.159a.128.128,0,0,1-.111.031,4.22,4.22,0,0,1-.573-.133c-.09-.026-.1-.1-.121-.164-.014-.049.044-.063.072-.087q1.415-1.158,2.832-2.311a.2.2,0,0,0,.074-.131c.072-.4.147-.79.219-1.185a.1.1,0,0,1,.028-.06l.564-.509c-.034.149-.066.3-.1.446-.129.527-.261,1.052-.388,1.579-.039.162-.089.321-.115.485" transform="translate(-26.453 -270.326)" fill="#aaddf5"/>
      <path id="Path_312" data-name="Path 312" d="M20.535,282.854c-.191.018-.365.016-.537.025a.631.631,0,0,1-.451-.164c-.925-.736-1.857-1.464-2.787-2.2a.122.122,0,0,1-.053-.068,4.706,4.706,0,0,1-.118-.967l3.945,3.369" transform="translate(-16.009 -271.335)" fill="#aaddf5"/>
      <path id="Path_313" data-name="Path 313" d="M18.664,278.687c-.065-.28-.131-.559-.2-.84-.081-.351-.16-.7-.243-1.065.019.013.031.02.041.029q.386.351.771.7a.169.169,0,0,1,.058.1c.072.4.148.8.221,1.2a.141.141,0,0,0,.059.087q1.419,1.158,2.84,2.315c.046.037.051.066.023.111a.1.1,0,0,0-.013.032c-.015.1-.089.134-.178.143l-.3-.256-.614-.513-.7-.586-.615-.513-.7-.586c-.147-.122-.3-.243-.444-.364" transform="translate(-16.74 -270.128)" fill="#feffff"/>
      <path id="Path_314" data-name="Path 314" d="M26.206,272.18a3.028,3.028,0,0,1,.9.167,2.168,2.168,0,0,1,1.435,1.758,3.828,3.828,0,0,1,.05.906,2.039,2.039,0,0,1-.351,1.119,1.282,1.282,0,0,1-.431.393,3.28,3.28,0,0,0-.021-.472.072.072,0,0,1,.02-.055,2.053,2.053,0,0,0,.376-1.432,2.342,2.342,0,0,0-.531-1.328,1.714,1.714,0,0,0-1.028-.634,1.338,1.338,0,0,0-.689.053l-.027.007-.013-.006a2.381,2.381,0,0,1,.313-.475" transform="translate(-20.164 -268.072)" fill="#f28200"/>
      <path id="Path_315" data-name="Path 315" d="M35.509,276.522a1.367,1.367,0,0,1-.492-.485,2.06,2.06,0,0,1-.276-.874,3.259,3.259,0,0,1-.024-.464A3.068,3.068,0,0,1,35,273.406a2.1,2.1,0,0,1,1.18-1.048,2.893,2.893,0,0,1,.923-.177,2.513,2.513,0,0,1,.323.488,1.878,1.878,0,0,0-.295-.075,1.482,1.482,0,0,0-1.136.319,2.367,2.367,0,0,0-.7,2.715,1.679,1.679,0,0,0,.2.355.094.094,0,0,1,.027.074,3.53,3.53,0,0,0-.017.465" transform="translate(-24.105 -268.073)" fill="#ffe8a0"/>
      <path id="Path_316" data-name="Path 316" d="M42.715,278.594a.456.456,0,0,1-.023.2c-.043.243-.09.485-.133.728a.106.106,0,0,1-.04.068q-1.4,1.145-2.805,2.291l-.033.024c-.057-.132-.113-.261-.169-.388-.015-.035.016-.044.033-.059l.8-.721,2.343-2.112c.01-.009.019-.02.028-.03Z" transform="translate(-26.245 -270.937)" fill="#aaddf5"/>
      <path id="Path_317" data-name="Path 317" d="M20.214,278.577l.888.8q1.133,1.022,2.268,2.042a.071.071,0,0,1,.02.1c-.054.113-.1.229-.158.351l-.249-.2-2.545-2.079a.123.123,0,0,1-.052-.076c-.056-.308-.112-.616-.171-.937" transform="translate(-17.628 -270.93)" fill="#feffff"/>
      <path id="Path_318" data-name="Path 318" d="M29.8,290.88a13.152,13.152,0,0,0,1.467.11,12.622,12.622,0,0,0,1.817-.1H33.1a2.4,2.4,0,0,1-.381.371,3.014,3.014,0,0,1-1.221.632,1.87,1.87,0,0,1-.356-.008c-.044,0-.089-.011-.133-.017,0-.022-.024-.025-.04-.033a3.569,3.569,0,0,1-.992-.743.645.645,0,0,1-.175-.215" transform="translate(-21.908 -276.425)" fill="#f58a15"/>
      <path id="Path_319" data-name="Path 319" d="M47.685,275.753c.056.189.1.372.137.558a7.383,7.383,0,0,1,.148,1.2.076.076,0,0,1-.027.071l-1.174,1a.109.109,0,0,1-.018.009l.14-.621q.211-.921.421-1.842a.145.145,0,0,1,.045-.08c.107-.1.214-.193.328-.3" transform="translate(-29.481 -269.668)" fill="#feffff"/>
      <path id="Path_320" data-name="Path 320" d="M45.382,281.1q.408-.351.816-.7l1.023-.873.043-.033c0,.105-.006.2-.014.293a5.177,5.177,0,0,1-.094.637.188.188,0,0,1-.079.113q-.937.735-1.872,1.471l-.039.027c.024-.15.068-.3.1-.444.038-.164.09-.324.116-.49" transform="translate(-28.772 -271.338)" fill="#feffff"/>
      <path id="Path_321" data-name="Path 321" d="M19.018,280.225c.148.121.3.242.444.364l.7.586.615.513.7.586.614.513.3.256a2.492,2.492,0,0,1-.486.107c-.04.006-.059-.022-.082-.041l-1.038-.886q-.784-.67-1.57-1.34a.261.261,0,0,1-.1-.162c-.03-.166-.071-.33-.107-.495" transform="translate(-17.093 -271.666)" fill="#aaddf5"/>
      <path id="Path_322" data-name="Path 322" d="M27.655,283.879c-.061.159-.121.319-.183.478a7.137,7.137,0,0,0-.3.914,7.389,7.389,0,0,1-.934-.214c-.04-.012-.051-.025-.038-.066a9.116,9.116,0,0,1,.593-1.406.1.1,0,0,1,.018-.02l.106.048a7.4,7.4,0,0,0,.736.267" transform="translate(-20.3 -273.158)" fill="#ce5905"/>
      <path id="Path_323" data-name="Path 323" d="M37.278,285.262a2.9,2.9,0,0,0-.132-.529c-.093-.3-.208-.6-.324-.895.255-.081.509-.164.757-.265a6.067,6.067,0,0,1,.347.726c.1.229.183.461.259.7.01.03.018.049-.023.061a7.02,7.02,0,0,1-.885.2" transform="translate(-25.046 -273.161)" fill="#ffdc4f"/>
      <path id="Path_324" data-name="Path 324" d="M27.107,287.285a1.689,1.689,0,0,0,.106.374,4.829,4.829,0,0,0,.48.952.221.221,0,0,1,.019.044,9.114,9.114,0,0,1-.9-.2.092.092,0,0,1-.054-.039,6.311,6.311,0,0,1-.708-1.34.063.063,0,0,1,0-.02h0a.933.933,0,0,1,.23.054c.261.066.523.124.789.168a.344.344,0,0,1,.039.011" transform="translate(-20.233 -274.715)" fill="#ce5905"/>
      <path id="Path_325" data-name="Path 325" d="M36.526,288.664c.072-.123.148-.245.217-.371a4.109,4.109,0,0,0,.407-.969.543.543,0,0,0,.008-.054c.231-.05.465-.091.694-.152.092-.025.185-.048.277-.071l.012.009a6.141,6.141,0,0,1-.739,1.394.1.1,0,0,1-.061.039c-.27.068-.541.132-.816.175" transform="translate(-24.914 -274.713)" fill="#ffdc4f"/>
      <path id="Path_326" data-name="Path 326" d="M43.9,282.4c-.026.166-.078.326-.116.49-.034.148-.077.294-.1.444l-1.033.817a.114.114,0,0,1-.064.02,4.663,4.663,0,0,1-.719-.011s-.007-.005-.017-.013l.222-.191,1.794-1.533c.011-.009.023-.015.034-.023" transform="translate(-27.292 -272.637)" fill="#aaddf5"/>
      <path id="Path_327" data-name="Path 327" d="M17.675,278.012l.128.553c0,.011.007.022,0,.031v0q-.59-.5-1.181-1a.074.074,0,0,1-.025-.066,7.564,7.564,0,0,1,.274-1.729c0-.011,0-.024.016-.027h.006l0,.006a1.308,1.308,0,0,0,.054.292c.1.458.2.915.29,1.374a.486.486,0,0,0,.222.388c.009,0,.015.017.025.023.065.04.106.113.186.132h0a.028.028,0,0,0,.01.028" transform="translate(-16.01 -269.675)" fill="#aaddf5"/>
      <path id="Path_328" data-name="Path 328" d="M19.534,283.9a1.292,1.292,0,0,1-.352-.069,3.29,3.29,0,0,1-1.766-1.161,2.513,2.513,0,0,1-.391-.727l.012-.011.665.518,1.795,1.413c.013.01.034.015.035.038Z" transform="translate(-16.203 -272.428)" fill="#aaddf5"/>
      <path id="Path_329" data-name="Path 329" d="M44.935,283.442c.227-.18.454-.361.681-.541l1.228-.966.054-.041a2,2,0,0,1-.132.32,3.035,3.035,0,0,1-1.358,1.337,2.633,2.633,0,0,1-.543.22Z" transform="translate(-28.639 -272.411)" fill="#fdfdfe"/>
      <path id="Path_330" data-name="Path 330" d="M27.379,280.363a1.567,1.567,0,0,1-.331.785c-.032.038-.052.048-.1.016a5.2,5.2,0,0,1-.935-.811.312.312,0,0,1-.02-.027.449.449,0,0,1,.047.007,3.34,3.34,0,0,0,.715.089,3.268,3.268,0,0,0,.623-.059" transform="translate(-20.209 -271.711)" fill="#ffc504"/>
      <path id="Path_331" data-name="Path 331" d="M38.385,280.326a4.944,4.944,0,0,1-.977.852c-.035.024-.048,0-.066-.018a1.489,1.489,0,0,1-.316-.651c-.012-.051-.018-.1-.027-.154a1.952,1.952,0,0,0,.43.065,3.36,3.36,0,0,0,.954-.093" transform="translate(-25.125 -271.711)" fill="#f58a15"/>
      <path id="Path_332" data-name="Path 332" d="M32.862,291.8a3.016,3.016,0,0,0,1.221-.632,2.372,2.372,0,0,0,.381-.371c.25-.039.5-.073.748-.124.017,0,.035-.012.052,0v0a4.063,4.063,0,0,1-1,.756,3.318,3.318,0,0,1-1.333.375.471.471,0,0,1-.068,0" transform="translate(-23.277 -276.331)" fill="#ffdc4f"/>
      <path id="Path_333" data-name="Path 333" d="M45.734,279.553c.026-.164.075-.324.115-.485.128-.527.259-1.052.388-1.579.036-.148.069-.3.1-.446l.242-.226c.029.017.018.037.015.052q-.271,1.192-.544,2.384a.1.1,0,0,1-.03.059c-.1.08-.193.161-.288.242" transform="translate(-29.027 -270.144)" fill="#fdfdfe"/>
      <path id="Path_334" data-name="Path 334" d="M17.91,277.99c-.08-.019-.121-.091-.186-.132-.009-.006-.015-.018-.025-.023a.487.487,0,0,1-.222-.388c-.091-.459-.194-.916-.29-1.374a1.308,1.308,0,0,1-.054-.292c.109.1.217.2.326.293a.1.1,0,0,1,.032.059q.207.9.412,1.81c0,.016,0,.032.007.047" transform="translate(-16.251 -269.681)" fill="#fdfdfe"/>
      <path id="Path_335" data-name="Path 335" d="M29.11,290.766a.644.644,0,0,0,.175.215,3.567,3.567,0,0,0,.992.743c.015.007.036.011.04.033a3.381,3.381,0,0,1-1.482-.619,4.113,4.113,0,0,1-.544-.47c-.013-.013-.03-.023-.032-.043h0a2.649,2.649,0,0,1,.341.058c.17.025.34.055.511.082" transform="translate(-21.221 -276.311)" fill="#ce5905"/>
      <path id="Path_336" data-name="Path 336" d="M32,286.911h.58a1,1,0,0,1,.309.2c.027.019.02.036,0,.054l-.607.5-.143-.118c-.151-.126-.3-.252-.452-.38-.014-.012-.058-.025-.02-.054a.881.881,0,0,1,.334-.206" transform="translate(-22.734 -274.652)" fill="#ffc82b"/>
      <path id="Path_337" data-name="Path 337" d="M28.153,283.645a7.392,7.392,0,0,1-.736-.267l-.106-.048a2.708,2.708,0,0,1,.142-.265c.02-.037.042-.025.066-.011a3.409,3.409,0,0,0,.553.255,2.836,2.836,0,0,0,.791.178.141.141,0,0,1,.119.055,3.72,3.72,0,0,1,.227.315,3.431,3.431,0,0,1-.546-.09c-.172-.036-.341-.082-.512-.124" transform="translate(-20.798 -272.924)" fill="#3e3226"/>
      <path id="Path_338" data-name="Path 338" d="M36.659,283.343c-.248.1-.5.184-.757.266-.224.06-.447.123-.676.168a3.462,3.462,0,0,1-.464.077c.071-.117.163-.219.244-.329.019-.025.054-.024.082-.026a3.273,3.273,0,0,0,1.332-.422c.059-.032.086-.024.114.032.039.08.092.152.125.235" transform="translate(-24.126 -272.931)" fill="#3e3226"/>
      <path id="Path_339" data-name="Path 339" d="M32.028,272.818a.4.4,0,0,1,.4-.4.4.4,0,0,1,0,.8.4.4,0,0,1-.4-.4" transform="translate(-22.905 -268.178)" fill="#f58a15"/>
      <path id="Path_340" data-name="Path 340" d="M27.362,280.111a3.265,3.265,0,0,1-.623.059,3.342,3.342,0,0,1-.715-.089.433.433,0,0,0-.047-.007c-.036-.039-.013-.087-.017-.131s0-.1,0-.143.009-.047.046-.027a1.487,1.487,0,0,0,.408.152,1.346,1.346,0,0,0,.917-.118c.061-.031.064-.01.059.04a2.229,2.229,0,0,1-.027.264" transform="translate(-20.193 -271.459)" fill="#f28200"/>
      <path id="Path_341" data-name="Path 341" d="M38.362,280.065a3.361,3.361,0,0,1-.954.093,1.954,1.954,0,0,1-.43-.065,1.832,1.832,0,0,1-.029-.323,1.43,1.43,0,0,0,1.429-.029,1.548,1.548,0,0,1-.015.323" transform="translate(-25.102 -271.45)" fill="#ffe8a0"/>
      <path id="Path_342" data-name="Path 342" d="M31.759,286.909a.881.881,0,0,0-.334.206c-.038.029.007.043.02.054.149.128.3.253.452.38l.143.118-.144.124-.757-.633c-.014-.012-.033-.023-.008-.042a.74.74,0,0,1,.349-.206c.093-.009.187,0,.281,0" transform="translate(-22.498 -274.65)" fill="#d80912"/>
      <path id="Path_343" data-name="Path 343" d="M32.523,287.786l.144-.124.607-.5c.022-.018.028-.034,0-.054a1.014,1.014,0,0,0-.309-.2.621.621,0,0,1,.584.229l-.3.254c-.183.154-.369.307-.551.464-.041.035-.069.042-.105,0a.716.716,0,0,0-.071-.064" transform="translate(-23.126 -274.645)" fill="#fdfdfe"/>
      <path id="Path_344" data-name="Path 344" d="M44.53,284.692l-.069.329c-.053.016-.1.035-.157.048a2.573,2.573,0,0,1-.346.065l.572-.442" transform="translate(-28.233 -273.661)" fill="#aaddf5"/>
      <path id="Path_345" data-name="Path 345" d="M18.542,279.8a.028.028,0,0,1-.01-.028c.013.006.011.017.01.028" transform="translate(-16.876 -271.464)" fill="#fdfdfe"/>
      <path id="Path_346" data-name="Path 346" d="M31.553,284.339l-.008-.006c.006-.005.009-.005.012,0l0,0" transform="translate(-22.689 -273.499)" fill="#f58a15"/>
      <path id="Path_347" data-name="Path 347" d="M21.556,285.487l.011.005-.008,0v-.009Z" transform="translate(-18.227 -274.016)" fill="#aaddf5"/>
      <path id="Path_348" data-name="Path 348" d="M26.047,287.046l0,0v0l0,.007Z" transform="translate(-20.231 -274.71)" fill="#ce5905"/>
      <path id="Path_349" data-name="Path 349" d="M39.425,287.041l.009-.008,0,.017-.012-.009" transform="translate(-26.209 -274.707)" fill="#ffdc4f"/>
      <path id="Path_350" data-name="Path 350" d="M45.3,278.6l.011,0v0L45.3,278.6Z" transform="translate(-28.835 -270.938)" fill="#aaddf5"/>
      <path id="Path_351" data-name="Path 351" d="M28.253,290.619l-.009-.006c.008,0,.011,0,.008.007Z" transform="translate(-21.214 -276.305)" fill="#ce5905"/>
      <path id="Path_352" data-name="Path 352" d="M17.022,281.934c0-.006,0-.015,0-.017s.011,0,.014.007l-.012.011" transform="translate(-16.201 -272.421)" fill="#aaddf5"/>
      <path id="Path_353" data-name="Path 353" d="M37.2,290.682l0,0h0v0" transform="translate(-25.215 -276.335)" fill="#ffdc4f"/>
      <path id="Path_354" data-name="Path 354" d="M18.772,280.875c0-.007.006-.008.011,0v0l-.01,0v0" transform="translate(-16.983 -271.953)" fill="#aaddf5"/>
      <path id="Path_355" data-name="Path 355" d="M33.591,285.136l-.008.008v-.016l.008.008" transform="translate(-23.599 -273.856)" fill="#100f0c"/>
      <path id="Path_356" data-name="Path 356" d="M26.955,274.774a.211.211,0,0,1-.014.027,2.212,2.212,0,0,0-.152.283c-.018.039-.04.047-.081.033-.071-.024-.144-.043-.217-.062-.03-.008-.042-.018-.029-.052a3.55,3.55,0,0,1,.152-.329c.008-.014.016-.03.036-.025a1.287,1.287,0,0,1,.29.1.021.021,0,0,1,.015.023" transform="translate(-20.416 -269.175)" fill="#8f8b8a"/>
      <path id="Path_357" data-name="Path 357" d="M26.44,276.123l-.2-.033c-.03,0-.04-.022-.034-.054a3.7,3.7,0,0,1,.091-.371c.012-.04.03-.05.068-.038.07.023.14.043.21.062.035.01.048.026.034.064a2.493,2.493,0,0,0-.1.333c-.008.036-.03.042-.061.037" transform="translate(-20.302 -269.61)" fill="#8f8b8a"/>
      <path id="Path_358" data-name="Path 358" d="M25.62,275.535l.162.02c.034,0,.047.02.036.055a2.564,2.564,0,0,0-.092.385c-.006.035-.025.034-.049.029L25.557,276c-.116-.02-.118-.02-.1-.137.011-.086.025-.172.041-.257s.015-.077.126-.074" transform="translate(-19.965 -269.571)" fill="#8f8b8a"/>
      <path id="Path_359" data-name="Path 359" d="M25.975,274.6a.211.211,0,0,0,.026,0c.1.011.1.01.057.108-.038.08-.073.162-.106.245-.014.034-.027.05-.07.042a.9.9,0,0,0-.217-.023c-.043,0-.059-.008-.043-.053.03-.084.06-.168.1-.25a.1.1,0,0,1,.093-.066l.164-.008" transform="translate(-20.041 -269.154)" fill="#8f8b8a"/>
      <path id="Path_360" data-name="Path 360" d="M25.649,277.076h-.023c-.137-.014-.138-.014-.157-.145a2.029,2.029,0,0,1-.018-.266c0-.045.013-.054.055-.044a.989.989,0,0,0,.161.027c.042,0,.051.023.044.058a1.755,1.755,0,0,0-.011.314c0,.042.008.09-.051.057" transform="translate(-19.966 -270.054)" fill="#8f8b8a"/>
      <path id="Path_361" data-name="Path 361" d="M38.44,274.651c.023-.009.03.008.038.021a3.231,3.231,0,0,1,.154.336c.012.031,0,.039-.029.046-.079.023-.158.045-.236.07a.039.039,0,0,1-.057-.026,2.5,2.5,0,0,0-.16-.3c-.012-.019-.021-.035.008-.049a1.22,1.22,0,0,1,.283-.1" transform="translate(-25.634 -269.175)" fill="#fdfdfe"/>
      <path id="Path_362" data-name="Path 362" d="M38.956,276.048c.011.024,0,.036-.032.04-.072.012-.144.022-.216.036-.034.007-.043-.008-.049-.038a2.409,2.409,0,0,0-.107-.339c-.012-.029-.012-.044.023-.055.078-.025.157-.048.236-.068.033-.009.044,0,.053.032a2.762,2.762,0,0,1,.093.391" transform="translate(-25.815 -269.61)" fill="#fdfdfe"/>
      <path id="Path_363" data-name="Path 363" d="M39.6,275.527c.058-.011.079.014.09.07.022.11.035.221.048.332,0,.036,0,.054-.044.059-.063.008-.126.02-.189.033-.028.006-.042,0-.046-.03a2.355,2.355,0,0,0-.1-.4c-.01-.03,0-.035.027-.038l.211-.027" transform="translate(-26.179 -269.566)" fill="#fdfdfe"/>
      <path id="Path_364" data-name="Path 364" d="M39.162,274.6c.17-.037.242.059.279.2.011.044.029.086.044.129s0,.043-.032.043A1.324,1.324,0,0,0,39.2,275a.032.032,0,0,1-.042-.024,2.68,2.68,0,0,0-.148-.331c-.016-.03-.006-.04.026-.041s.082,0,.123-.007" transform="translate(-26.021 -269.148)" fill="#fdfdfe"/>
      <path id="Path_365" data-name="Path 365" d="M39.836,276.607a2.03,2.03,0,0,1-.038.411c0,.027-.021.032-.042.036-.168.04-.167.04-.169-.131,0-.073-.006-.146-.012-.219,0-.038,0-.057.047-.062.07-.007.139-.023.213-.035" transform="translate(-26.276 -270.05)" fill="#fdfdfe"/>
    </g>
    <path id="Path_366" data-name="Path 366" d="M64.633,280.734a2.173,2.173,0,0,0-1.256-.751,2.318,2.318,0,0,0,1.1-.775,2.05,2.05,0,0,0,.409-1.29,2.151,2.151,0,0,0-.763-1.771,3.3,3.3,0,0,0-2.144-.621H58.972a.285.285,0,0,0-.321.324v8.458a.285.285,0,0,0,.321.324h3.179a3.345,3.345,0,0,0,2.18-.627,2.243,2.243,0,0,0,.762-1.84,2.2,2.2,0,0,0-.46-1.432m-5.44-4.7h2.748a2.8,2.8,0,0,1,1.768.478,1.894,1.894,0,0,1,0,2.782,2.777,2.777,0,0,1-1.768.484H59.193Zm4.732,7.625a2.856,2.856,0,0,1-1.789.473H59.193V280.28h2.942a2.882,2.882,0,0,1,1.789.466,2.061,2.061,0,0,1,0,2.912" transform="translate(-34.796 -269.567)" fill="#fff"/>
    <path id="Path_367" data-name="Path 367" d="M76.1,286.979a2.138,2.138,0,0,1-1.662-.605,2.585,2.585,0,0,1-.548-1.783v-3.757q0-.285.272-.285t.269.285v3.705a2.242,2.242,0,0,0,.4,1.459,1.569,1.569,0,0,0,1.269.479,2,2,0,0,0,1.529-.627,2.312,2.312,0,0,0,.587-1.647v-3.369q0-.285.272-.285t.269.285v5.837q0,.285-.257.284t-.272-.284v-.957a2.1,2.1,0,0,1-.866.945,2.517,2.517,0,0,1-1.262.321" transform="translate(-41.603 -271.811)" fill="#fff"/>
    <path id="Path_368" data-name="Path 368" d="M86.974,286.933q-.272,0-.272-.284v-5.836q0-.285.272-.285t.257.285v.929a2.1,2.1,0,0,1,.793-.923,2.221,2.221,0,0,1,1.2-.318,1.763,1.763,0,0,1,1.9,1.317,2.174,2.174,0,0,1,.826-.959,2.362,2.362,0,0,1,1.3-.357q2.053,0,2.053,2.377v3.772c0,.19-.09.284-.269.284s-.273-.095-.273-.284v-3.721a2.418,2.418,0,0,0-.354-1.459A1.393,1.393,0,0,0,93.222,281a1.781,1.781,0,0,0-1.42.615,2.436,2.436,0,0,0-.53,1.647v3.385q0,.285-.269.284t-.272-.284v-3.721a2.418,2.418,0,0,0-.355-1.459A1.392,1.392,0,0,0,89.193,281a1.781,1.781,0,0,0-1.42.615,2.436,2.436,0,0,0-.53,1.647v3.385q0,.285-.269.284" transform="translate(-47.326 -271.789)" fill="#fff"/>
    <path id="Path_369" data-name="Path 369" d="M111.017,279.09a2.531,2.531,0,0,0-2.025-.872,2.558,2.558,0,0,0-1.368.357,2.185,2.185,0,0,0-.866.974v-3.874q0-.285-.272-.285t-.269.285v8.691q0,.285.269.284t.272-.284v-1.02a2.207,2.207,0,0,0,.866.975,2.581,2.581,0,0,0,1.368.354,2.69,2.69,0,0,0,1.471-.393,2.6,2.6,0,0,0,.963-1.123,3.992,3.992,0,0,0,.342-1.71,3.49,3.49,0,0,0-.751-2.358m-.406,4.365a2.211,2.211,0,0,1-3.26,0,3.635,3.635,0,0,1,0-4.017,2.21,2.21,0,0,1,3.26,0,3.649,3.649,0,0,1,0,4.017" transform="translate(-56.042 -269.506)" fill="#fff"/>
    <path id="Path_370" data-name="Path 370" d="M121.177,284.675a1.567,1.567,0,0,1-1.259-.521,2.2,2.2,0,0,1-.445-1.469v-7.011q0-.285.269-.285t.272.285v6.92q0,1.577,1.214,1.578a1.743,1.743,0,0,0,.218-.012,1.062,1.062,0,0,1,.182-.015c.147,0,.221.065.221.194a.259.259,0,0,1-.079.209.641.641,0,0,1-.257.1c-.06.008-.119.014-.175.018s-.11.006-.16.006" transform="translate(-61.964 -269.506)" fill="#fff"/>
    <path id="Path_371" data-name="Path 371" d="M130.474,283.5a3.3,3.3,0,0,0-.672-2.2,2.324,2.324,0,0,0-1.883-.8,2.727,2.727,0,0,0-2.528,1.544,3.76,3.76,0,0,0-.366,1.71,3.294,3.294,0,0,0,.805,2.346,2.884,2.884,0,0,0,2.2.857,3.745,3.745,0,0,0,1.19-.194,2.971,2.971,0,0,0,.981-.53.291.291,0,0,0,.133-.284.25.25,0,0,0-.167-.194.308.308,0,0,0-.3.079,2.68,2.68,0,0,1-.893.484,3.305,3.305,0,0,1-.966.137,2.292,2.292,0,0,1-1.771-.684,2.833,2.833,0,0,1-.657-1.937h4.611c.188,0,.282-.112.282-.336m-4.88-.143a2.886,2.886,0,0,1,.678-1.692,2.053,2.053,0,0,1,1.632-.672,1.834,1.834,0,0,1,1.511.633,2.823,2.823,0,0,1,.557,1.731Z" transform="translate(-64.444 -271.789)" fill="#fff"/>
    <path id="Path_372" data-name="Path 372" d="M142.782,279.09a2.791,2.791,0,0,0-3.394-.515,2.182,2.182,0,0,0-.866.974v-3.874q0-.285-.272-.285t-.269.285v8.691q0,.285.269.284t.272-.284v-1.02a2.2,2.2,0,0,0,.866.975,2.579,2.579,0,0,0,1.368.354,2.689,2.689,0,0,0,1.471-.393,2.6,2.6,0,0,0,.963-1.123,3.992,3.992,0,0,0,.342-1.71,3.493,3.493,0,0,0-.75-2.358m-.406,4.365a2.211,2.211,0,0,1-3.26,0,3.635,3.635,0,0,1,0-4.017,2.21,2.21,0,0,1,3.26,0,3.649,3.649,0,0,1,0,4.017" transform="translate(-70.231 -269.506)" fill="#fff"/>
    <path id="Path_373" data-name="Path 373" d="M155.937,283.5a3.3,3.3,0,0,0-.672-2.2,2.324,2.324,0,0,0-1.883-.8,2.727,2.727,0,0,0-2.528,1.544,3.76,3.76,0,0,0-.366,1.71,3.294,3.294,0,0,0,.805,2.346,2.883,2.883,0,0,0,2.2.857,3.745,3.745,0,0,0,1.19-.194,2.97,2.97,0,0,0,.981-.53.291.291,0,0,0,.133-.284.25.25,0,0,0-.167-.194.308.308,0,0,0-.3.079,2.68,2.68,0,0,1-.893.484,3.305,3.305,0,0,1-.966.137,2.293,2.293,0,0,1-1.771-.684,2.833,2.833,0,0,1-.657-1.937h4.611c.188,0,.281-.112.281-.336m-4.88-.143a2.886,2.886,0,0,1,.678-1.692,2.053,2.053,0,0,1,1.632-.672,1.834,1.834,0,0,1,1.511.633,2.823,2.823,0,0,1,.557,1.731Z" transform="translate(-75.817 -271.789)" fill="#fff"/>
    <path id="Path_374" data-name="Path 374" d="M168.143,283.5a3.3,3.3,0,0,0-.672-2.2,2.324,2.324,0,0,0-1.883-.8,2.728,2.728,0,0,0-2.528,1.544,3.767,3.767,0,0,0-.366,1.71,3.294,3.294,0,0,0,.805,2.346,2.884,2.884,0,0,0,2.2.857,3.745,3.745,0,0,0,1.19-.194,2.965,2.965,0,0,0,.981-.53.291.291,0,0,0,.133-.284.252.252,0,0,0-.167-.194.308.308,0,0,0-.3.079,2.68,2.68,0,0,1-.893.484,3.312,3.312,0,0,1-.966.137,2.292,2.292,0,0,1-1.771-.684,2.833,2.833,0,0,1-.657-1.937h4.61c.188,0,.282-.112.282-.336m-4.88-.143a2.885,2.885,0,0,1,.678-1.692,2.055,2.055,0,0,1,1.632-.672,1.834,1.834,0,0,1,1.511.633,2.823,2.823,0,0,1,.557,1.731Z" transform="translate(-81.269 -271.789)" fill="#fff"/>
    <path id="Path_375" data-name="Path 375" d="M186.038,281.025a2.427,2.427,0,0,0-1.8-.6,4.768,4.768,0,0,0-1.066.13,4.983,4.983,0,0,0-1.117.412.447.447,0,0,0-.252.267.507.507,0,0,0,0,.336.4.4,0,0,0,.206.233.413.413,0,0,0,.37-.045,4.271,4.271,0,0,1,.947-.375,3.741,3.741,0,0,1,.911-.115,1.38,1.38,0,0,1,1.054.354,1.666,1.666,0,0,1,.33,1.156v.4h-.414a11.24,11.24,0,0,0-2.24.175,2.119,2.119,0,0,0-1.177.575,1.574,1.574,0,0,0-.354,1.084,1.714,1.714,0,0,0,.3.98,2.058,2.058,0,0,0,.808.69,2.586,2.586,0,0,0,1.156.252,2.189,2.189,0,0,0,1.192-.321,1.95,1.95,0,0,0,.757-.878v.633q0,.541.5.542.479,0,.479-.542v-3.5a2.534,2.534,0,0,0-.588-1.846m-.418,3.227a1.935,1.935,0,0,1-.493,1.362,1.639,1.639,0,0,1-1.265.536,1.431,1.431,0,0,1-1-.336,1.122,1.122,0,0,1-.366-.866.879.879,0,0,1,.239-.651,1.528,1.528,0,0,1,.839-.336,10.889,10.889,0,0,1,1.647-.1h.4Z" transform="translate(-89.64 -271.757)" fill="#fb9700"/>
    <path id="Path_376" data-name="Path 376" d="M194.7,276.879q-.684,0-.684-.648t.684-.633q.685,0,.684.633t-.684.648" transform="translate(-95.261 -269.599)" fill="#fb9700"/>
    <path id="Path_377" data-name="Path 377" d="M194.835,286.928q-.517,0-.517-.566v-5.283q0-.557.517-.557t.53.557v5.283q0,.566-.53.566" transform="translate(-95.395 -271.799)" fill="#fb9700"/>
  </g>
</svg>
