<svg xmlns="http://www.w3.org/2000/svg" width="75.125" height="99.424" viewBox="0 0 75.125 99.424">
  <g id="vp-icon-2" transform="translate(1.5 1.499)">
    <path id="Path_426" data-name="Path 426" d="M86.771,44.844c.017-.237.42-.618.744-.925.516-.489,1.05-.994,1.05-1.644s-.534-1.155-1.05-1.644c-.324-.307-.727-.688-.744-.925s.328-.689.606-1.044a2.5,2.5,0,0,0,.789-1.761c-.1-.642-.7-1.062-1.28-1.469-.367-.255-.823-.573-.875-.806s.222-.728.444-1.12a2.5,2.5,0,0,0,.517-1.863c-.191-.619-.848-.944-1.485-1.259-.4-.2-.9-.444-.988-.668a2.394,2.394,0,0,1,.27-1.171A2.5,2.5,0,0,0,85,26.624a2.513,2.513,0,0,0-1.655-1.02c-.426-.136-.957-.3-1.078-.514a2.389,2.389,0,0,1,.092-1.2,2.511,2.511,0,0,0-.058-1.937,2.513,2.513,0,0,0-1.786-.76c-.442-.071-.994-.159-1.144-.349a2.385,2.385,0,0,1-.087-1.2,2.507,2.507,0,0,0-.346-1.908,2.508,2.508,0,0,0-1.878-.487,2.4,2.4,0,0,1-1.185-.174,2.4,2.4,0,0,1-.262-1.168,2.511,2.511,0,0,0-.624-1.838,2.512,2.512,0,0,0-1.928-.2,2.383,2.383,0,0,1-1.2,0c-.2-.136-.328-.678-.432-1.114a2.517,2.517,0,0,0-.893-1.726,2.507,2.507,0,0,0-1.935.087,2.385,2.385,0,0,1-1.188.181c-.216-.1-.424-.621-.592-1.036-.265-.658-.539-1.338-1.141-1.575a2.51,2.51,0,0,0-1.9.376,2.4,2.4,0,0,1-1.149.357c-.229-.07-.512-.549-.74-.933-.362-.612-.735-1.243-1.366-1.387a2.5,2.5,0,0,0-1.817.655c-.376.251-.843.564-1.085.528s-.587-.466-.869-.812c-.449-.55-.913-1.12-1.561-1.168a2.5,2.5,0,0,0-1.7.917c-.335.3-.75.683-1,.683s-.663-.379-1-.683a2.5,2.5,0,0,0-1.7-.917c-.648.048-1.112.618-1.561,1.168-.282.346-.633.776-.869.812s-.709-.277-1.085-.528a2.5,2.5,0,0,0-1.817-.655c-.631.143-1,.775-1.366,1.387-.227.384-.51.863-.74.933a2.4,2.4,0,0,1-1.149-.357,2.5,2.5,0,0,0-1.9-.376c-.6.237-.876.917-1.141,1.575-.168.415-.376.931-.592,1.036a2.385,2.385,0,0,1-1.188-.181,2.507,2.507,0,0,0-1.935-.087,2.512,2.512,0,0,0-.893,1.726c-.1.436-.233.979-.432,1.114a2.4,2.4,0,0,1-1.2,0,2.509,2.509,0,0,0-1.927.2,2.507,2.507,0,0,0-.626,1.837,2.4,2.4,0,0,1-.262,1.168,2.394,2.394,0,0,1-1.185.175,2.508,2.508,0,0,0-1.878.487,2.507,2.507,0,0,0-.346,1.908,2.385,2.385,0,0,1-.087,1.2,2.377,2.377,0,0,1-1.144.348,2.514,2.514,0,0,0-1.786.761,2.511,2.511,0,0,0-.058,1.937,2.388,2.388,0,0,1,.092,1.2c-.121.209-.651.378-1.078.514-.676.215-1.375.437-1.655,1.02a2.5,2.5,0,0,0,.231,1.922,2.39,2.39,0,0,1,.269,1.171c-.087.223-.587.469-.987.668-.636.314-1.294.64-1.485,1.257a2.5,2.5,0,0,0,.517,1.864c.222.392.5.881.444,1.12s-.509.551-.875.806c-.582.407-1.184.827-1.28,1.469a2.5,2.5,0,0,0,.788,1.761c.279.355.626.8.607,1.044s-.42.618-.744.925c-.516.489-1.05.994-1.05,1.644s.534,1.155,1.05,1.644c.324.307.727.688.744.925s-.328.689-.607,1.044a2.5,2.5,0,0,0-.788,1.761c.1.642.7,1.062,1.28,1.469.366.255.823.573.875.806s-.222.728-.444,1.12a2.5,2.5,0,0,0-.517,1.863c.191.619.848.944,1.485,1.257.4.2.9.445.987.669A2.4,2.4,0,0,1,20.236,56,2.5,2.5,0,0,0,20,57.926c.28.581.979.8,1.654,1.02.427.136.958.3,1.079.514a2.4,2.4,0,0,1-.092,1.2,2.511,2.511,0,0,0,.058,1.937,2.513,2.513,0,0,0,1.786.76,2.4,2.4,0,0,1,1.144.348,2.393,2.393,0,0,1,.086,1.2,2.511,2.511,0,0,0,.346,1.908,2.51,2.51,0,0,0,1.879.487,2.392,2.392,0,0,1,1.184.174,2.392,2.392,0,0,1,.263,1.169,2.511,2.511,0,0,0,.624,1.837,2.512,2.512,0,0,0,1.928.2,2.383,2.383,0,0,1,1.2,0c.2.136.328.678.432,1.114a2.517,2.517,0,0,0,.893,1.726,1.488,1.488,0,0,0,.952.149L27.764,93.7l11.617-6.682,3.728,12.543,8.549-22.383c.3-.269.633-.544.844-.544.248,0,.663.379,1,.683.149.136.3.271.451.4l7.995,20.725L66.109,85.7,77.272,92.53,70,73.671a1.264,1.264,0,0,0,.539-.16,2.516,2.516,0,0,0,.893-1.726c.1-.436.233-.979.432-1.114a2.382,2.382,0,0,1,1.2,0,1.8,1.8,0,0,0,2.553-2.039,2.392,2.392,0,0,1,.262-1.168,2.4,2.4,0,0,1,1.185-.175A1.8,1.8,0,0,0,79.284,64.9a2.4,2.4,0,0,1,.086-1.2,2.378,2.378,0,0,1,1.146-.348,2.514,2.514,0,0,0,1.786-.761,2.511,2.511,0,0,0,.058-1.937,2.376,2.376,0,0,1-.092-1.2c.121-.209.651-.378,1.078-.514A2.513,2.513,0,0,0,85,57.926,2.5,2.5,0,0,0,84.769,56a2.394,2.394,0,0,1-.27-1.171c.088-.223.587-.469.988-.668.636-.314,1.294-.64,1.485-1.257a2.5,2.5,0,0,0-.517-1.864c-.222-.392-.5-.881-.444-1.12s.508-.551.874-.806c.584-.407,1.185-.827,1.281-1.469a2.5,2.5,0,0,0-.789-1.761C87.1,45.533,86.753,45.09,86.771,44.844ZM52.5,67.2A24.923,24.923,0,1,1,77.425,42.275,24.923,24.923,0,0,1,52.5,67.2Z" transform="translate(-16.44 -6.308)" fill="none" stroke="#fb9700" stroke-miterlimit="10" stroke-width="3"/>
    <g id="Group_138" data-name="Group 138" transform="translate(23.276 26.575)">
      <path id="Path_427" data-name="Path 427" d="M46.745,49.931h-.062a2.055,2.055,0,0,1-1.474-.69l-6.633-7.49a2.052,2.052,0,1,1,3.072-2.721l5.188,5.858L60.13,31.593a2.052,2.052,0,0,1,2.9,2.9L48.2,49.33A2.052,2.052,0,0,1,46.745,49.931Z" transform="translate(-38.06 -30.992)" fill="#fb9700"/>
    </g>
  </g>
</svg>
