<svg xmlns="http://www.w3.org/2000/svg" width="106.256" height="66.17" viewBox="0 0 106.256 66.17">
  <path id="vp-icon-1" d="M98.589,11.7h-17.3a4.853,4.853,0,0,0,0,9.706H90.6L62.472,49.533c-.2-.015-.4-.061-.607-.061a8.193,8.193,0,0,0-1.1.112L48.862,37.674a8.566,8.566,0,1,0-16.224,1.14l-19.264,19.2a8.476,8.476,0,0,0-2.133-.3,8.628,8.628,0,1,0,7.8,5.045L38.056,43.738a8.167,8.167,0,0,0,5.986-.328l10.4,10.4a8.476,8.476,0,0,0-1.16,4.234,8.577,8.577,0,1,0,15.719-4.739L96.213,26.1V36.544a4.853,4.853,0,1,0,9.706,0V19.027A7.34,7.34,0,0,0,98.589,11.7Z" transform="translate(-1.163 -10.196)" fill="#fb9700" stroke="#111" stroke-width="3"/>
</svg>
