<svg xmlns="http://www.w3.org/2000/svg" width="88.206" height="88.654" viewBox="0 0 88.206 88.654">
  <path id="vp-icon-3" d="M92.626,83.5l-2.1-2.1h0l-.349-.351h0l-.242-.241-.006,0-1.821-1.8h0L69.94,61.126a32.833,32.833,0,1,0-8.576,8.331L79.65,87.471l2.069,2.039h0l.207.2,2.242,2.239c1.437,1.439,4.5.713,6.832-1.621S94.062,84.936,92.626,83.5ZM43.577,65.185A23.171,23.171,0,1,1,66.75,42.015,23.171,23.171,0,0,1,43.577,65.185Z" transform="translate(-7.676 -6.559)" fill="#fb9700" stroke="#111" stroke-width="5"/>
</svg>
