<svg xmlns="http://www.w3.org/2000/svg" width="73.957" height="73.958" viewBox="0 0 73.957 73.958">
  <path id="vp-icon-4" d="M82.214,45.736a36.479,36.479,0,0,0-12.453-27.4l-.025-.02-.017-.014A36.462,36.462,0,0,0,46.331,9.285h0l-.163-.009c-.142-.011-.284-.019-.429-.019s-.286.008-.428.019l-.164.009h0A36.458,36.458,0,0,0,21.75,18.3l-.012.01-.027.022A36.446,36.446,0,0,0,45.125,82.184h.005l.164.01c.147.01.292.02.441.02s.3-.011.442-.02l.163-.01h.005A36.488,36.488,0,0,0,82.214,45.736ZM69.7,68.219a38.358,38.358,0,0,0-8.116-4.953,43.109,43.109,0,0,0,3.672-15.732H78.566A32.527,32.527,0,0,1,69.7,68.219ZM47.534,15.2a40.588,40.588,0,0,1,8.029,9.226,34.782,34.782,0,0,1-8.029,1.4Zm-3.6,0V25.82a34.782,34.782,0,0,1-8.03-1.4A40.618,40.618,0,0,1,43.938,15.2Zm14.3,46.74a38.322,38.322,0,0,0-10.7-2.066V47.534H61.656A39.575,39.575,0,0,1,58.237,61.937Zm-14.3-2.066a38.322,38.322,0,0,0-10.7,2.066,39.558,39.558,0,0,1-3.42-14.4H43.938Zm0,3.6V76.267A40.355,40.355,0,0,1,34.857,65.19,34.722,34.722,0,0,1,43.938,63.476Zm3.6,12.791V63.476a34.709,34.709,0,0,1,9.079,1.714A40.387,40.387,0,0,1,47.534,76.266Zm0-32.329V29.424a38.426,38.426,0,0,0,9.83-1.786,40.142,40.142,0,0,1,4.286,16.3ZM59.023,23.211a44.111,44.111,0,0,0-8.209-9.934,32.884,32.884,0,0,1,14.827,6.337A34.791,34.791,0,0,1,59.023,23.211Zm-26.575,0a34.764,34.764,0,0,1-6.618-3.6,32.883,32.883,0,0,1,14.827-6.337A44.1,44.1,0,0,0,32.448,23.211Zm1.659,4.426a38.4,38.4,0,0,0,9.831,1.786V43.937H29.821A40.156,40.156,0,0,1,34.107,27.638Zm-7.889,19.9A43.11,43.11,0,0,0,29.89,63.267a38.336,38.336,0,0,0-8.116,4.953A32.53,32.53,0,0,1,12.9,47.534Zm5.26,18.959a44.008,44.008,0,0,0,9.2,11.709,32.668,32.668,0,0,1-16.261-7.475A34.728,34.728,0,0,1,31.478,66.494Zm28.515,0a34.8,34.8,0,0,1,7.065,4.234A32.663,32.663,0,0,1,50.8,78.2,44.036,44.036,0,0,0,59.993,66.494ZM78.567,43.937H65.246A43.739,43.739,0,0,0,60.758,26.38a38.384,38.384,0,0,0,7.7-4.351A32.879,32.879,0,0,1,78.567,43.937ZM23.008,22.029a38.384,38.384,0,0,0,7.7,4.351,43.754,43.754,0,0,0-4.489,17.558H12.9A32.882,32.882,0,0,1,23.008,22.029Z" transform="translate(-8.757 -8.757)" fill="#fb9700" stroke="#111" stroke-width="1"/>
</svg>
